# xmcd
#
# Track frame offsets: 
#        150
#        30573
#        58997
#        62797
#        91567
#        117027
#        149811
#        176828
#        181724
#        203478
#        239095
#
# Disc length: 3722 seconds
#
# Revision: 0
# Processed by: cddbd v1.5.2PL0 Copyright (c) Steve Scherf et al.
# Submitted via: ExactAudioCopy v1.3
#
DISCID=9a0e880b
DTITLE=George Porter, Jr, Zigaboo Modeliste - Foundations of Funk
DYEAR=2019
DGENRE=Funk
TTITLE0=Talkin' Bout New Orleans
TTITLE1=Can You Do Without
TTITLE2=Stage Banter 1
TTITLE3=No More Okey Dokey
TTITLE4=Chicken Strut
TTITLE5=Love is For Me
TTITLE6=Hey Pockey A-Way
TTITLE7=Stage Banter 2
TTITLE8=Stretch Your Rubber Band
TTITLE9=Just Kissed My Baby
TTITLE10=Fire on the Bayou
EXTD=
EXTT0=
EXTT1=
EXTT2=
EXTT3=
EXTT4=
EXTT5=
EXTT6=
EXTT7=
EXTT8=
EXTT9=
EXTT10=
PLAYORDER=
